PathFileType	4	(X/Y/Z)	/Users/itak/Documents/Research/Walk-IL/dataset/trc/00531_00183.trc
DataRate	CameraRate	NumFrames	NumMarkers	Units	OrigDataRate	OrigDataStartFrame	OrigNumFrames
100.000000	100.000000	4	53	mm	100.000000	59	472
Frame#	Time	RPSI			LPSI			L3			STRN			T10			C7			CLAV			RBAK			LBAK			LSHO			LUPA			LAEL			LAOL			LWTS			LWPS			LFRA			LIFD			LHPS			LHTS			RSHO			RUPA			RAEL			RAOL			RWTS			RWPS			RFRA			RIFD			RHTS			RHPS			RBHD			LFHD			RFHD			LBHD			LHIP			RHIP			RASI			LASI			LKNE			LTHI			LANK			LTIP			LTOE			LMT1			LMT5			LHEE			RKNE			RTHI			RANK			RTIP			RTOE			RMT1			RMT5			RHEE			
		X1	Y1	Z1	X2	Y2	Z2	X3	Y3	Z3	X4	Y4	Z4	X5	Y5	Z5	X6	Y6	Z6	X7	Y7	Z7	X8	Y8	Z8	X9	Y9	Z9	X10	Y10	Z10	X11	Y11	Z11	X12	Y12	Z12	X13	Y13	Z13	X14	Y14	Z14	X15	Y15	Z15	X16	Y16	Z16	X17	Y17	Z17	X18	Y18	Z18	X19	Y19	Z19	X20	Y20	Z20	X21	Y21	Z21	X22	Y22	Z22	X23	Y23	Z23	X24	Y24	Z24	X25	Y25	Z25	X26	Y26	Z26	X27	Y27	Z27	X28	Y28	Z28	X29	Y29	Z29	X30	Y30	Z30	X31	Y31	Z31	X32	Y32	Z32	X33	Y33	Z33	X34	Y34	Z34	X35	Y35	Z35	X36	Y36	Z36	X37	Y37	Z37	X38	Y38	Z38	X39	Y39	Z39	X40	Y40	Z40	X41	Y41	Z41	X42	Y42	Z42	X43	Y43	Z43	X44	Y44	Z44	X45	Y45	Z45	X46	Y46	Z46	X47	Y47	Z47	X48	Y48	Z48	X49	Y49	Z49	X50	Y50	Z50	X51	Y51	Z51	X52	Y52	Z52	X53	Y53	Z53	

60	0.59	-1158.832397460938	971.963623046875	-437.9959716796875	-1091.146240234375	969.853271484375	-541.8698120117188	-1132.799072265625	1032.7080078125	-499.1445617675781	-939.5491333007812	1199.115356445312	-392.9382934570312	-1148.988403320312	1138.708862304688	-504.7839965820312	-1109.505859375	1369.00927734375	-481.7013244628906	-971.7025756835938	1293.772094726562	-410.9443664550781	-1190.676025390625	1247.571411132812	-427.7391052246094	-1091.886474609375	1315.521728515625	-569.3076782226562	-973.356689453125	1361.505493164062	-591.90380859375	-961.8599853515625	1235.406372070312	-653.0968627929688	-949.5255126953125	1025.578979492188	-674.6878662109375	-1045.661499023438	1020.028137207031	-645.9361572265625	-888.455810546875	840.5835571289062	-605.4142456054688	-942.031005859375	804.5764770507812	-673.6448974609375	-935.7025146484375	941.5677490234375	-670.4301147460938	-889.8081665039062	683.4558715820312	-593.4681396484375	-920.90625	750.80712890625	-658.8240966796875	-872.8312377929688	762.5978393554688	-617.878662109375	-1129.74853515625	1365.839721679688	-325.4706726074219	-1172.327392578125	1298.525146484375	-283.3262329101562	-1187.258178710938	1030.056274414062	-243.4552459716797	-1215.03369140625	1014.214904785156	-301.7655029296875	-1078.963989257812	835.8595581054688	-216.1664123535156	-1165.711303710938	808.4829711914062	-217.1689910888672	-1185.823486328125	975.686767578125	-235.1552886962891	-1069.111083984375	676.1387939453125	-209.3617858886719	-1074.014892578125	743.39990234375	-185.6809387207031	-1141.49169921875	736.278076171875	-205.3735046386719	-1127.059204101562	1517.510009765625	-404.2997131347656	-949.7077026367188	1598.224243164062	-453.7314453125	-1024.027221679688	1591.681396484375	-349.8728332519531	-1046.068359375	1519.257934570312	-541.7042846679688	-932.6679077148438	891.0712890625	-595.8915405273438	-1138.533569335938	868.5975952148438	-279.5860595703125	-1018.212890625	909.9684448242188	-279.2531127929688	-892.2528076171875	921.491943359375	-486.01806640625	-978.156494140625	468.4398193359375	-563.7711791992188	-939.9805908203125	624.1148071289062	-571.7520141601562	-1094.037963867188	50.72429275512695	-599.8896484375	-1018.399963378906	321.1913757324219	-584.56787109375	-953.0304565429688	38.03676223754883	-447.2696838378906	-1036.958374023438	42.82846069335938	-460.5999450683594	-993.9965209960938	45.4385986328125	-552.8502197265625	-1165.5244140625	47.79851913452148	-569.8487548828125	-1146.143920898438	482.537353515625	-314.8760375976562	-1128.666015625	739.8909912109375	-266.5598449707031	-1209.267578125	50.9346923828125	-383.4076843261719	-1148.718139648438	338.7349243164062	-335.3903503417969	-1007.056274414062	42.35760498046875	-343.217041015625	-1054.823486328125	49.42650604248047	-402.9291687011719	-1110.856811523438	46.62131500244141	-323.9749450683594	-1237.406372070312	43.93117523193359	-448.6531982421875	
61	0.6	-1158.612426757812	971.91943359375	-438.2227783203125	-1090.863525390625	969.7980346679688	-542.11181640625	-1132.50146484375	1032.699951171875	-499.36083984375	-939.3565673828125	1199.04443359375	-393.1078186035156	-1148.683471679688	1138.692993164062	-505.0172424316406	-1109.214721679688	1368.9951171875	-481.9154968261719	-971.4305419921875	1293.736083984375	-411.1600341796875	-1190.41455078125	1247.595825195312	-427.9783325195312	-1091.550903320312	1315.514282226562	-569.556884765625	-972.9908447265625	1361.447387695312	-592.0787353515625	-961.4891357421875	1235.358154296875	-653.2640380859375	-949.1405639648438	1025.502197265625	-674.7418212890625	-1045.363525390625	1020.07958984375	-646.1129150390625	-888.2930297851562	840.4287109375	-605.3484497070312	-941.57177734375	804.40283203125	-673.6192016601562	-935.3507080078125	941.4730834960938	-670.4448852539062	-889.4354858398438	683.4608154296875	-593.23095703125	-920.6839599609375	750.6572265625	-658.706298828125	-872.5604858398438	762.5029907226562	-617.6974487304688	-1129.463012695312	1365.868286132812	-325.7293395996094	-1172.085693359375	1298.542114257812	-283.5717468261719	-1187.051635742188	1030.099853515625	-243.6041107177734	-1214.834838867188	1014.244934082031	-301.8689575195312	-1078.847045898438	835.8579711914062	-216.2515106201172	-1165.623657226562	808.4932250976562	-217.2814636230469	-1185.63427734375	975.7158203125	-235.3012084960938	-1069.057739257812	676.139892578125	-209.4067535400391	-1073.942749023438	743.389404296875	-185.7805786132812	-1141.405151367188	736.2808837890625	-205.5089263916016	-1126.654907226562	1517.562255859375	-404.4113159179688	-949.1778564453125	1598.075317382812	-453.7736206054688	-1023.5498046875	1591.563354492188	-349.9833984375	-1045.622802734375	1519.270751953125	-541.8557739257812	-932.3676147460938	890.9392700195312	-596.053466796875	-1137.658935546875	868.1718139648438	-279.4501953125	-1017.993713378906	910.0079345703125	-279.4276123046875	-892.0027465820312	921.4442138671875	-486.14501953125	-978.0352783203125	468.4224853515625	-563.7420043945312	-939.7911987304688	624.0372314453125	-571.759521484375	-1094.023803710938	50.73476409912109	-599.8370361328125	-1018.356750488281	321.1329040527344	-584.5169067382812	-953.0435180664062	38.02433395385742	-447.2602233886719	-1036.984008789062	42.80034637451172	-460.5600891113281	-994.0224609375	45.46907424926758	-552.8265991210938	-1165.549194335938	47.79556655883789	-569.842041015625	-1145.885864257812	482.5914611816406	-314.8772888183594	-1128.458374023438	739.9541625976562	-266.62841796875	-1209.254028320312	50.95170974731445	-383.4122924804688	-1148.471069335938	338.7400512695312	-335.4324340820312	-1007.0546875	42.35049057006836	-343.2285766601562	-1054.817749023438	49.42229843139648	-402.9295959472656	-1110.840942382812	46.61920547485352	-323.9824523925781	-1237.405639648438	43.96198272705078	-448.6531066894531	
62	0.61	-1158.391479492188	971.869140625	-438.4604797363281	-1090.5791015625	969.7353515625	-542.382080078125	-1132.186889648438	1032.690795898438	-499.5791320800781	-939.145751953125	1198.9814453125	-393.2853698730469	-1148.359375	1138.679565429688	-505.2579650878906	-1108.906494140625	1368.982543945312	-482.1544494628906	-971.1341552734375	1293.70751953125	-411.4087524414062	-1190.142578125	1247.61328125	-428.2357788085938	-1091.2041015625	1315.50390625	-569.833251953125	-972.6193237304688	1361.394287109375	-592.2640380859375	-961.1185302734375	1235.318359375	-653.4585571289062	-948.7543334960938	1025.4384765625	-674.815673828125	-1045.03369140625	1020.135559082031	-646.2982788085938	-888.0559692382812	840.298095703125	-605.2796020507812	-941.0643920898438	804.2440185546875	-673.615478515625	-934.9737548828125	941.3966064453125	-670.4862670898438	-889.034423828125	683.4733276367188	-593.0357055664062	-920.4465942382812	750.5228881835938	-658.6283569335938	-872.224853515625	762.4177856445312	-617.5527954101562	-1129.166259765625	1365.89404296875	-325.998291015625	-1171.847290039062	1298.557861328125	-283.8191223144531	-1186.843383789062	1030.142822265625	-243.7676086425781	-1214.6142578125	1014.276550292969	-301.9948120117188	-1078.728881835938	835.8440551757812	-216.3537445068359	-1165.536743164062	808.498291015625	-217.4238433837891	-1185.433349609375	975.7463989257812	-235.4654846191406	-1069.009643554688	676.1420288085938	-209.4688262939453	-1073.884399414062	743.368896484375	-185.8876190185547	-1141.33203125	736.2777709960938	-205.662109375	-1126.241333007812	1517.621948242188	-404.5304260253906	-948.6296997070312	1597.923095703125	-453.8199157714844	-1023.052673339844	1591.44580078125	-350.0992736816406	-1045.166381835938	1519.294311523438	-542.0044555664062	-932.05859375	890.8099975585938	-596.2337646484375	-1136.876831054688	867.797607421875	-279.3775024414062	-1017.758361816406	910.0478515625	-279.6207580566406	-891.7440795898438	921.4090576171875	-486.2902526855469	-977.9090576171875	468.3862915039062	-563.7410888671875	-939.5714721679688	623.9594116210938	-571.7710571289062	-1093.999877929688	50.74251174926758	-599.7858276367188	-1018.319396972656	321.0674438476562	-584.4712524414062	-953.0579223632812	38.00925064086914	-447.2470397949219	-1037.00830078125	42.77597427368164	-460.5266723632812	-994.0418701171875	45.49918365478516	-552.8062133789062	-1165.56689453125	47.79551696777344	-569.8343505859375	-1145.611328125	482.6443176269531	-314.8964538574219	-1128.188110351562	740.0325317382812	-266.6634826660156	-1209.239501953125	50.96834945678711	-383.4196166992188	-1148.214599609375	338.7498168945312	-335.4790344238281	-1007.054443359375	42.34284973144531	-343.239013671875	-1054.812622070312	49.41690826416016	-402.9305419921875	-1110.82568359375	46.61695098876953	-323.9878845214844	-1237.402587890625	43.99114990234375	-448.65625	
63	0.62	-1158.169921875	971.8106689453125	-438.7105407714844	-1090.302978515625	969.6630859375	-542.6691284179688	-1131.861083984375	1032.680786132812	-499.8004150390625	-938.9132080078125	1198.928955078125	-393.4738159179688	-1148.024291992188	1138.66796875	-505.4989624023438	-1108.58203125	1368.972045898438	-482.4178161621094	-970.8236694335938	1293.68603515625	-411.6772155761719	-1189.864501953125	1247.623046875	-428.5108032226562	-1090.849609375	1315.488403320312	-570.1363525390625	-972.247314453125	1361.34716796875	-592.4654541015625	-960.7439575195312	1235.282104492188	-653.6729736328125	-948.3663940429688	1025.385375976562	-674.9104614257812	-1044.677001953125	1020.187866210938	-646.4927368164062	-887.7486572265625	840.193115234375	-605.2131958007812	-940.5370483398438	804.1116333007812	-673.6353759765625	-934.569580078125	941.3331909179688	-670.5496826171875	-888.624755859375	683.4863891601562	-592.891845703125	-920.1864624023438	750.4076538085938	-658.5950927734375	-871.8358154296875	762.346923828125	-617.4562377929688	-1128.8642578125	1365.914794921875	-326.2762145996094	-1171.609985351562	1298.574340820312	-284.0713806152344	-1186.633911132812	1030.185302734375	-243.9462432861328	-1214.366943359375	1014.310668945312	-302.1510925292969	-1078.611083984375	835.8170776367188	-216.4718627929688	-1165.451049804688	808.4984130859375	-217.6014404296875	-1185.222778320312	975.78076171875	-235.6486968994141	-1068.972045898438	676.143310546875	-209.5486602783203	-1073.84521484375	743.339111328125	-185.9983825683594	-1141.278076171875	736.26953125	-205.8306121826172	-1125.813110351562	1517.689331054688	-404.66845703125	-948.062744140625	1597.768798828125	-453.8767395019531	-1022.530151367188	1591.329345703125	-350.2174987792969	-1044.695922851562	1519.330078125	-542.1502685546875	-931.74560546875	890.6881103515625	-596.4257202148438	-1136.178344726562	867.4557495117188	-279.3437194824219	-1017.510375976562	910.0863037109375	-279.8272705078125	-891.4845581054688	921.3840942382812	-486.4539184570312	-977.7803955078125	468.3296813964844	-563.7613525390625	-939.3209228515625	623.8803100585938	-571.7870483398438	-1093.970703125	50.74833297729492	-599.7385864257812	-1018.284301757812	320.9959716796875	-584.4291381835938	-953.0728759765625	37.99340057373047	-447.2316589355469	-1037.027954101562	42.75380706787109	-460.5021057128906	-994.0552978515625	45.52906036376953	-552.7890014648438	-1165.578369140625	47.79652404785156	-569.826904296875	-1145.321899414062	482.69287109375	-314.9354858398438	-1127.8251953125	740.1234741210938	-266.6604614257812	-1209.2255859375	50.98387145996094	-383.428466796875	-1147.9560546875	338.763916015625	-335.5297546386719	-1007.057189941406	42.33670806884766	-343.2449035644531	-1054.809204101562	49.41018295288086	-402.9321594238281	-1110.813232421875	46.61455154418945	-323.9911193847656	-1237.398193359375	44.01712036132812	-448.6615295410156	
